# xmcd
#
# Track frame offsets:
#	150
#	16541
#	30161
#	43263
#	56026
#	67360
#	83058
#	96450
#	110367
#	123153
#	138911
#	152953
#	166981
#	181315
#	194433
#	208309
#	223011
#	237641
#	251440
#	262616
#
# Disc length: 3726 seconds
#
# Revision: 1
# Processed by: cddbd v1.5.2PL0 Copyright (c) Steve Scherf et al.
# Submitted via: audiograbber 1.83.01
#
DISCID=1c0e8c14
DTITLE=Teodoro e Sampaio - Minha historia
DYEAR=1900
DGENRE=
TTITLE0=A turma do boi
TTITLE1=Cuidado com o casamento
TTITLE2=Filho da Tuta
TTITLE3=Chora nenem
TTITLE4=Lambida do boi
TTITLE5=Se a casa cair
TTITLE6=O bocao
TTITLE7=Bao demais da conta
TTITLE8=E mentira dela
TTITLE9=Quem vai mandar no mundo e a mulher
TTITLE10=Avo mulherada
TTITLE11=To na balada
TTITLE12=A mulher do meu vizinho
TTITLE13=Fogo no facho
TTITLE14=Roela do eno
TTITLE15=Bate a bota no chao
TTITLE16=O certinho e o safado
TTITLE17=Mulher chorona
TTITLE18=Vou beber de novo
TTITLE19=O garrafao
EXTD=Provavelmente uma coletanea nao oficial.
EXTT0=
EXTT1=
EXTT2=
EXTT3=
EXTT4=
EXTT5=
EXTT6=
EXTT7=
EXTT8=
EXTT9=
EXTT10=
EXTT11=
EXTT12=
EXTT13=
EXTT14=
EXTT15=
EXTT16=
EXTT17=
EXTT18=
EXTT19=
PLAYORDER=
